<svg width="36" height="32" viewBox="0 0 36 32" fill="none" xmlns="http://www.w3.org/2000/svg">
<path d="M35.7013 4.57733C35.4601 4.41385 35.1407 4.4227 34.9077 4.59844C34.6019 4.83004 34.1046 5.01395 33.5692 5.15563C34.9636 3.59305 34.9935 2.54951 34.9786 2.30974C34.9629 2.0618 34.8137 1.84179 34.5889 1.73621C34.3635 1.62995 34.0992 1.65583 33.8982 1.8016C32.3295 2.94186 30.7669 3.18231 29.8378 3.20683C28.4115 1.84179 26.5594 1.09387 24.5881 1.09387C20.3677 1.09387 16.9346 4.57324 16.9346 8.84956C16.9346 9.21739 16.9605 9.58453 17.0116 9.94827C9.6973 9.86585 3.75758 2.8574 3.69628 2.78451C3.55324 2.61422 3.33663 2.52295 3.11457 2.5427C2.89251 2.56177 2.69429 2.68779 2.58326 2.88124C0.47848 6.53226 1.88712 9.73916 3.17451 11.5756C2.947 11.4543 2.76241 11.3344 2.65206 11.2534C2.44771 11.1008 2.17457 11.0756 1.94434 11.1887C1.71479 11.3017 1.56834 11.5333 1.56357 11.7888C1.50703 15.2681 3.18132 17.2612 4.75617 18.3633C4.54637 18.3436 4.33316 18.4212 4.1874 18.5799C4.02392 18.7577 3.96602 19.0091 4.03686 19.24C5.12467 22.8004 7.7955 24.0101 9.495 24.4209C6.00065 27.1414 0.857886 26.2655 0.80135 26.2559C0.49074 26.2008 0.184218 26.3642 0.0575226 26.6524C-0.0684921 26.9398 0.0173341 27.277 0.268001 27.4677C3.95648 30.283 8.36836 30.9062 11.5548 30.9062C13.9655 30.9062 15.6758 30.5493 15.8393 30.5132C31.9815 26.6878 32.4358 11.9018 32.3983 9.47895C35.4288 6.66099 35.9022 5.58749 35.9751 5.32183C36.0534 5.04051 35.9431 4.7408 35.7013 4.57733ZM31.2478 8.68813C31.0959 8.82777 31.0163 9.02871 31.0299 9.2351C31.0728 9.88901 31.8984 25.3084 15.5389 29.1849C15.4647 29.2006 8.96165 30.5575 3.32437 27.7647C5.70638 27.6986 9.12172 27.0747 11.501 24.4032C11.6808 24.2022 11.7244 23.9134 11.6127 23.6682C11.5024 23.425 11.2592 23.269 10.9929 23.269H10.9861C10.952 23.2908 7.37523 23.265 5.73772 19.8626C6.39708 19.9 7.21039 19.8592 7.85817 19.5608C8.12518 19.4375 8.28253 19.1576 8.24984 18.8653C8.21714 18.5738 8.00053 18.3361 7.71308 18.2755C7.52985 18.2366 3.54779 17.3464 2.9906 13.0026C3.59479 13.2669 4.3679 13.4828 5.13217 13.3663C5.39509 13.3268 5.61034 13.1381 5.68459 12.8827C5.75883 12.6273 5.67778 12.3521 5.47683 12.1777C5.30654 12.0292 1.56697 8.70584 3.34003 4.4193C5.26499 6.43894 10.9663 11.6873 17.8739 11.2908C18.0763 11.2793 18.2636 11.1771 18.3841 11.0136C18.504 10.8501 18.5449 10.6417 18.4958 10.4448C18.3651 9.92375 18.2983 9.387 18.2983 8.85024C18.2983 5.32456 21.121 2.45687 24.5902 2.45687C26.287 2.45687 27.8788 3.13395 29.0715 4.36412C29.1969 4.49354 29.3692 4.56779 29.549 4.5712C30.2711 4.58141 31.4576 4.49627 32.7982 3.95883C32.4113 4.44041 31.8432 5.01736 31.0074 5.67399C30.771 5.85995 30.6845 6.17805 30.7942 6.45801C30.9039 6.73865 31.1872 6.91507 31.4828 6.8885C31.6416 6.87556 32.4508 6.80472 33.3656 6.6065C32.8656 7.14326 32.1824 7.8285 31.2478 8.68813Z" fill="#43587B" stroke="#43587B" stroke-width="0.4"/>
</svg>
