<svg width="36" height="36" viewBox="0 0 36 36" fill="none" xmlns="http://www.w3.org/2000/svg">
<path d="M26.8073 36H9.1927C4.12402 36 0 31.8748 0 26.8061V9.19154C0 4.12286 4.12402 0 9.1927 0H26.8073C31.876 0 36 4.12286 36 9.19154V26.8061C36 31.8748 31.876 36 26.8073 36ZM9.1927 2.05622C5.25761 2.05622 2.05737 5.25645 2.05737 9.19038V26.805C2.05737 30.7401 5.25877 33.9403 9.1927 33.9403H26.8073C30.7424 33.9403 33.9415 30.7389 33.9415 26.805V9.19154C33.9415 5.25645 30.7412 2.05737 26.8073 2.05737H9.1927V2.05622Z" fill="#43587B"/>
<path d="M34.9722 13.508H22.2929C21.725 13.508 21.2637 13.0467 21.2637 12.4787C21.2637 11.9108 21.7238 11.4495 22.2929 11.4495H34.971C35.539 11.4495 36.0003 11.9096 36.0003 12.4787C36.0014 13.0467 35.5401 13.508 34.9722 13.508Z" fill="#43587B"/>
<path d="M13.4419 13.5079H1.02811C0.460157 13.5079 0 13.0466 0 12.4798C0 11.9119 0.460157 11.4506 1.02811 11.4506H13.4419C14.0099 11.4506 14.4712 11.9107 14.4712 12.4798C14.47 13.0466 14.0099 13.5079 13.4419 13.5079Z" fill="#43587B"/>
<path d="M17.9997 26.0215C13.5767 26.0215 9.97656 22.4237 9.97656 17.9995C9.97656 13.5753 13.5755 9.97632 17.9997 9.97632C22.4228 9.97632 26.0218 13.5741 26.0218 17.9995C26.0218 22.4237 22.424 26.0215 17.9997 26.0215ZM17.9997 12.0337C14.7103 12.0337 12.0328 14.7112 12.0328 18.0007C12.0328 21.2901 14.7103 23.9653 17.9997 23.9653C21.2892 23.9653 23.9644 21.2901 23.9644 18.0007C23.9644 14.7112 21.2892 12.0337 17.9997 12.0337Z" fill="#43587B"/>
<path d="M29.6223 10.8501H24.9941C24.4262 10.8501 23.9648 10.39 23.9648 9.82204V5.19266C23.9648 4.62471 24.4262 4.16455 24.9941 4.16455H29.6223C30.1903 4.16455 30.6504 4.62471 30.6504 5.19266V9.82204C30.6493 10.3912 30.1903 10.8501 29.6223 10.8501ZM26.0211 8.79277H28.5931V6.22193H26.0211V8.79277Z" fill="#43587B"/>
</svg>
