<svg width="20" height="36" viewBox="0 0 20 36" fill="none" xmlns="http://www.w3.org/2000/svg">
<path d="M12.6551 36H6.36419C5.88901 36 5.50337 35.6144 5.50337 35.1392V20.3639H1.10105C0.625871 20.3639 0.240234 19.9782 0.240234 19.503V13.41C0.240234 12.9349 0.625871 12.5492 1.10105 12.5492H5.50337V8.91823C5.50332 3.41577 8.83478 0 14.1995 0C16.596 0 18.526 0.184227 19.0132 0.249636C19.4419 0.306455 19.7604 0.671455 19.7604 1.10359V6.55095C19.7604 7.02614 19.3747 7.41177 18.8995 7.41177L15.6766 7.41523C13.8155 7.41523 13.5159 8.035 13.5159 9.52082V12.551H18.6895C18.9374 12.551 19.1733 12.6577 19.3351 12.8436C19.4987 13.0279 19.5745 13.2758 19.5435 13.522L18.7584 19.6149C18.7033 20.0453 18.3366 20.3673 17.9045 20.3673H13.5159V35.1426C13.516 35.6161 13.1303 36 12.6551 36ZM7.225 34.2783H11.7943V19.503C11.7943 19.0278 12.1799 18.6422 12.6551 18.6422H17.1469L17.7116 14.2709H12.6551C12.18 14.2709 11.7943 13.8852 11.7943 13.41V9.51909C11.7943 7.87664 12.1972 5.69182 15.6767 5.69182L18.0405 5.69009V1.88005C17.1608 1.80427 15.7473 1.72164 14.1995 1.72164C9.83164 1.72164 7.22505 4.41091 7.22505 8.91818V13.41C7.22505 13.8852 6.83941 14.2708 6.36423 14.2708H1.96192V18.6421H6.36423C6.83941 18.6421 7.22505 19.0278 7.22505 19.503V34.2783H7.225Z" fill="#43587B"/>
</svg>
