<svg width="18" height="18" viewBox="0 0 18 18" fill="none" xmlns="http://www.w3.org/2000/svg">
<path d="M17.6203 16.0762L12.2304 10.6554C13.0106 9.55235 13.4741 8.20689 13.4741 6.75C13.4741 3.02232 10.4692 0 6.76295 0C3.05662 0 0.0517578 3.02232 0.0517578 6.75C0.0517578 10.4777 3.05662 13.5 6.76295 13.5C8.21138 13.5 9.54901 13.0337 10.6459 12.249L16.0358 17.6698C16.2546 17.8898 16.5415 18 16.8283 18C17.1153 18 17.4021 17.8898 17.6203 17.6698C18.0579 17.23 18.0579 16.5161 17.6203 16.0762ZM10.4079 9.35101L9.96804 9.97311L9.34931 10.4158C8.58655 10.9614 7.69216 11.25 6.76295 11.25C4.29582 11.25 2.28883 9.23117 2.28883 6.75C2.28883 4.2688 4.29582 2.25 6.76295 2.25C9.23008 2.25 11.2371 4.2688 11.2371 6.75C11.2376 7.6843 10.9507 8.58375 10.4079 9.35101Z" fill="#8798B6"/>
</svg>
